HIERARCHY
ROOT Model_Hips
{
	OFFSET 0.000000 96.915077 0.000000
	CHANNELS 6 Xposition Yposition Zposition Xrotation Yrotation Zrotation
	JOINT Model_Spine
	{
		OFFSET 0.000000 11.137703 -1.289900
		CHANNELS 3 Xrotation Yrotation Zrotation
		JOINT Model_Spine1
		{
			OFFSET 0.000000 12.993942 -1.504922
			CHANNELS 3 Xrotation Yrotation Zrotation
			JOINT Model_Spine2
			{
				OFFSET 0.000000 14.850220 -1.719911
				CHANNELS 3 Xrotation Yrotation Zrotation
				JOINT Model_Neck
				{
					OFFSET 0.000000 16.706543 -1.934903
					CHANNELS 3 Xrotation Yrotation Zrotation
					JOINT Model_Head
					{
						OFFSET 0.000000 10.471298 2.002100
						CHANNELS 3 Xrotation Yrotation Zrotation
						JOINT Model_HeadTop_End
						{
							OFFSET 0.000000 20.842606 3.985100
							CHANNELS 3 Xrotation Yrotation Zrotation
							End Site
							{
								OFFSET 0.000000 21.220154 0.000000
							}
						}
					}
				}
				JOINT Model_LeftShoulder
				{
					OFFSET 7.008500 14.768600 -1.919946
					CHANNELS 3 Xrotation Yrotation Zrotation
					JOINT Model_LeftArm
					{
						OFFSET 14.126271 -3.718048 0.029937
						CHANNELS 3 Xrotation Yrotation Zrotation
						JOINT Model_LeftForeArm
						{
							OFFSET 28.282801 0.000000 0.000000
							CHANNELS 3 Xrotation Yrotation Zrotation
							JOINT Model_LeftHand
							{
								OFFSET 26.204689 0.000000 0.000000
								CHANNELS 3 Xrotation Yrotation Zrotation
								End Site
								{
									OFFSET 26.204704 0.000000 0.000000
								}
							}
						}
					}
				}
				JOINT Model_RightShoulder
				{
					OFFSET -7.008500 14.768555 -1.949840
					CHANNELS 3 Xrotation Yrotation Zrotation
					JOINT Model_RightArm
					{
						OFFSET -14.126281 -3.718018 -0.029932
						CHANNELS 3 Xrotation Yrotation Zrotation
						JOINT Model_RightForeArm
						{
							OFFSET -28.283798 0.000000 -0.000001
							CHANNELS 3 Xrotation Yrotation Zrotation
							JOINT Model_RightHand
							{
								OFFSET -26.204193 0.000000 -0.000001
								CHANNELS 3 Xrotation Yrotation Zrotation
								End Site
								{
									OFFSET -26.204208 0.000000 -0.000001
								}
							}
						}
					}
				}
			}
		}
	}
	JOINT Model_LeftUpLeg
	{
		OFFSET 8.327700 -6.193199 -0.402800
		CHANNELS 3 Xrotation Yrotation Zrotation
		JOINT Model_LeftLeg
		{
			OFFSET 0.735802 -42.108742 -0.610721
			CHANNELS 3 Xrotation Yrotation Zrotation
			JOINT Model_LeftFoot
			{
				OFFSET -0.735806 -36.833748 -0.172876
				CHANNELS 3 Xrotation Yrotation Zrotation
				JOINT Model_LeftToeBase
				{
					OFFSET -0.565857 -11.977769 16.297714
					CHANNELS 3 Xrotation Yrotation Zrotation
					JOINT Model_LeftToe_End
					{
						OFFSET -0.111712 -0.312793 7.857784
						CHANNELS 3 Xrotation Yrotation Zrotation
						End Site
						{
							OFFSET -0.111712 -0.312793 7.857784
						}
					}
				}
			}
		}
	}
	JOINT Model_RightUpLeg
	{
		OFFSET -8.327700 -6.193199 -0.516500
		CHANNELS 3 Xrotation Yrotation Zrotation
		JOINT Model_RightLeg
		{
			OFFSET -0.735785 -42.108738 -0.434061
			CHANNELS 3 Xrotation Yrotation Zrotation
			JOINT Model_RightFoot
			{
				OFFSET 0.735776 -36.833748 -0.021630
				CHANNELS 3 Xrotation Yrotation Zrotation
				JOINT Model_RightToeBase
				{
					OFFSET 0.565817 -11.977745 15.903093
					CHANNELS 3 Xrotation Yrotation Zrotation
					JOINT Model_RightToe_End
					{
						OFFSET 0.111702 -0.312791 7.811342
						CHANNELS 3 Xrotation Yrotation Zrotation
						End Site
						{
							OFFSET 0.111702 -0.312791 7.811342
						}
					}
				}
			}
		}
	}
}
MOTION
Frames: 7
Frame Time: 0.016667
-1.041807 96.498863 0.484182 -0.396704 -0.105092 -1.162507 -0.077150 -0.251945 0.058798 -0.405542 -2.061631 0.004917 -0.409503 -2.055487 0.006789 -1.643143 1.628222 -1.273240 -1.678345 1.522939 -1.468960 -0.000000 0.000000 -0.000000 -1.034381 12.072983 1.364746 7.020789 -17.712282 -69.118851 -0.000002 -31.268685 -0.000012 -0.000000 -0.000001 0.000001 -0.051220 -2.502786 -5.605988 2.863597 21.434044 77.129358 0.000013 27.245181 -0.000001 0.000003 0.000001 -0.000001 -7.523141 3.066085 3.028875 19.223554 9.487219 1.011314 -10.761913 3.308928 -4.262569 -0.053066 -0.000010 0.000000 0.000000 -0.000001 -0.000000 -7.272355 -12.838614 -4.544965 13.929706 -4.990766 -0.940420 -5.407246 -4.360093 5.410233 -0.154470 -0.000007 0.000003 0.000000 0.000003 0.000001 
-0.852601 96.488068 0.457355 -0.433949 -0.226205 -1.210413 -0.055889 -0.243490 0.050009 -0.372199 -2.051139 -0.006871 -0.375837 -2.045195 -0.004290 -1.632315 1.598788 -1.234913 -1.667227 1.495851 -1.426113 -0.000001 -0.000000 0.000000 -1.024720 12.060302 1.302436 6.958837 -17.885906 -69.028610 -0.000032 -31.193877 -0.000048 -0.000002 -0.000001 -0.000000 -0.033173 -2.420421 -5.528636 2.762479 21.358179 77.129645 0.000015 27.216405 -0.000009 -0.000000 -0.000000 -0.000002 -7.571783 2.996749 2.951717 19.436121 9.480560 0.968873 -10.902290 3.488809 -4.123071 -0.061785 -0.000011 0.000001 0.000000 -0.000001 -0.000000 -7.244497 -12.922044 -4.618772 13.802778 -4.920012 -0.965552 -5.260244 -4.244437 5.520261 -0.216398 0.000003 -0.000002 0.000000 -0.000002 0.000000 
-0.660703 96.474190 0.427855 -0.475745 -0.348866 -1.255830 -0.031485 -0.233467 0.039898 -0.333812 -2.040525 -0.019852 -0.337069 -2.034828 -0.016508 -1.625200 1.567518 -1.195026 -1.659783 1.467052 -1.381527 -0.000000 -0.000000 -0.000000 -1.012612 12.029528 1.236269 6.892069 -18.108715 -68.935433 -0.000007 -31.109702 -0.000024 -0.000001 0.000000 0.000001 -0.010885 -2.318847 -5.442059 2.643949 21.295145 77.121305 0.000009 27.179852 -0.000009 -0.000001 0.000002 -0.000001 -7.627543 2.940062 2.870324 19.667523 9.474216 0.930542 -11.052008 3.657454 -3.985067 -0.071369 -0.000001 -0.000002 0.000000 0.000001 -0.000000 -7.233002 -13.007002 -4.701799 13.711351 -4.845501 -0.990856 -5.129698 -4.125786 5.633082 -0.260524 0.000011 -0.000002 0.000000 0.000001 0.000000 
-0.466300 96.457359 0.395992 -0.521689 -0.471848 -1.299481 -0.004007 -0.221784 0.028284 -0.290491 -2.029779 -0.034346 -0.293310 -2.024374 -0.030190 -1.621666 1.534079 -1.152814 -1.655863 1.436223 -1.334422 -0.000000 -0.000000 -0.000000 -0.998296 11.977453 1.170054 6.820761 -18.382510 -68.841914 -0.000008 -31.016862 -0.000017 -0.000000 -0.000000 0.000002 0.017049 -2.192700 -5.342492 2.515361 21.244494 77.096648 0.000008 27.140134 0.000006 -0.000001 -0.000000 -0.000001 -7.690321 2.898426 2.785206 19.916157 9.467895 0.897831 -11.210285 3.812868 -3.849304 -0.080672 0.000005 -0.000003 -0.000000 0.000000 -0.000000 -7.235826 -13.090756 -4.792647 13.650653 -4.769976 -1.015940 -5.012766 -4.005566 5.748479 -0.287805 0.000003 -0.000001 0.000000 0.000001 0.000000 
-0.269718 96.437752 0.362202 -0.571203 -0.594056 -1.341999 0.026401 -0.208418 0.014918 -0.242488 -2.018977 -0.050587 -0.244799 -2.013914 -0.045568 -1.621339 1.498226 -1.107713 -1.655068 1.403126 -1.284255 -0.000000 0.000000 0.000000 -0.982032 11.902283 1.106725 6.744972 -18.707717 -68.749945 -0.000020 -30.916390 -0.000020 -0.000001 -0.000001 0.000001 0.051768 -2.037444 -5.226698 2.384255 21.206324 77.047976 -0.000010 27.102568 0.000038 -0.000002 0.000001 -0.000001 -7.759989 2.873478 2.697166 20.180333 9.461380 0.871424 -11.376188 3.953728 -3.716177 -0.088319 -0.000006 -0.000001 -0.000000 0.000002 -0.000000 -7.251062 -13.170511 -4.889731 13.618980 -4.695249 -1.040714 -4.909779 -3.885109 5.866467 -0.299205 -0.000001 -0.000002 0.000000 -0.000001 0.000000 
-0.071164 96.415489 0.326856 -0.623545 -0.714543 -1.384091 0.059502 -0.193418 -0.000231 -0.190195 -2.008269 -0.068719 -0.191918 -2.003583 -0.062789 -1.623598 1.459812 -1.059392 -1.656785 1.367609 -1.230680 -0.000000 -0.000000 -0.000000 -0.964190 11.803927 1.048590 6.664827 -19.082983 -68.660921 -0.000007 -30.809846 -0.000002 0.000001 0.000001 0.000001 0.093988 -1.849792 -5.092146 2.257597 21.181313 76.968582 0.000007 27.072466 -0.000013 -0.000002 0.000001 0.000000 -7.836816 2.865805 2.607336 20.459340 9.454580 0.851145 -11.549473 4.079531 -3.585724 -0.093094 -0.000003 0.000001 0.000000 -0.000001 -0.000000 -7.277539 -13.243830 -4.991474 13.613942 -4.623791 -1.065449 -4.819727 -3.765625 5.987290 -0.293660 -0.000013 0.000000 0.000000 -0.000001 0.000000 
0.129108 96.390778 0.290185 -0.677821 -0.832572 -1.426273 0.094996 -0.176906 -0.017161 -0.134118 -1.997865 -0.088793 -0.135172 -1.993598 -0.081906 -1.627573 1.418816 -1.007713 -1.660153 1.329646 -1.173601 -0.000000 0.000000 -0.000000 -0.945115 11.683692 0.996870 6.580193 -19.504676 -68.576137 0.000003 -30.699200 -0.000003 0.000001 -0.000000 0.000001 0.143955 -1.628119 -4.937540 2.141114 21.170713 76.853596 0.000021 27.054808 0.000002 0.000000 0.000002 -0.000001 -7.920538 2.874935 2.516684 20.750842 9.447678 0.836232 -11.728767 4.190552 -3.457494 -0.094414 0.000007 -0.000001 -0.000000 -0.000001 0.000000 -7.313919 -13.309173 -5.096383 13.630997 -4.558301 -1.090586 -4.739928 -3.647027 6.111124 -0.272160 0.000006 0.000001 0.000000 0.000001 0.000000 
